# xmcd
#
# Track frame offsets:
#	150
#	14560
#	32695
#	49202
#	64897
#	77052
#	93045
#	111492
#	126790
#	142110
#	159770
#	174830
#	189012
#	202305
#	216265
#	229982
#	247320
#	260627
#	261302
#	261977
#	262735
#	263682
#	264775
#	265970
#	267240
#	268262
#	269385
#	270545
#	272057
#	273305
#	274437
#	275552
#	276680
#	277850
#	278852
#	279945
#
# Disc length: 3742 seconds
#
# Revision: 0
# Processed by: cddbd v1.5.2PL0 Copyright (c) Steve Scherf et al.
# Submitted via: EZCDAudioConverter 2.3.0.1
#
DISCID=440e9c24
DTITLE=GoldDisc 1194
DYEAR=1900
DGENRE=
TTITLE0=Sara Evans - Fool, I'm A Woman
TTITLE1=Doug Stone - Make Up In Love
TTITLE2=Chad Brock - Lightning Does The Work
TTITLE3=George Jones - Choices (single)
TTITLE4=Lee Ann Womack - (Now You See Me) Now You Don't (remix)
TTITLE5=John Michael Montgomery - Home To You
TTITLE6=Mark Wills - She's In Love (radio edit)
TTITLE7=Steve Wariner - I'm Already Taken
TTITLE8=Montgomery Gentry - Lonely and Gone
TTITLE9=Dixiw Chicks - Ready To Run
TTITLE10=Jessica Andrews - You Go First (Do You wanna Kiss) (LP)
TTITLE11=Andy Griggs - I'll Go Crazy
TTITLE12=Martina McBride - I Love You (single)
TTITLE13=Tim McGraw - Something Like That
TTITLE14=George Strait - What Do You Say To That
TTITLE15=Brooks and Dunn - Missing You
TTITLE16=Martina McBride - I Love You (Runaway Bride edit)
TTITLE17= -
TTITLE18= -
TTITLE19= -
TTITLE20= -
TTITLE21= -
TTITLE22= -
TTITLE23= -
TTITLE24= -
TTITLE25= -
TTITLE26= -
TTITLE27= -
TTITLE28= -
TTITLE29= -
TTITLE30= -
TTITLE31= -
TTITLE32= -
TTITLE33= -
TTITLE34= -
TTITLE35= -
EXTD=
EXTT0=
EXTT1=
EXTT2=
EXTT3=
EXTT4=
EXTT5=
EXTT6=
EXTT7=
EXTT8=
EXTT9=
EXTT10=
EXTT11=
EXTT12=
EXTT13=
EXTT14=
EXTT15=
EXTT16=
EXTT17=
EXTT18=
EXTT19=
EXTT20=
EXTT21=
EXTT22=
EXTT23=
EXTT24=
EXTT25=
EXTT26=
EXTT27=
EXTT28=
EXTT29=
EXTT30=
EXTT31=
EXTT32=
EXTT33=
EXTT34=
EXTT35=
PLAYORDER=
